<?xml version="1.0" encoding="utf-8"?>
<!-- Generator: Adobe Illustrator 19.1.0, SVG Export Plug-In . SVG Version: 6.00 Build 0)  -->
<svg version="1.1" id="Capa_1" xmlns="http://www.w3.org/2000/svg" xmlns:xlink="http://www.w3.org/1999/xlink" x="0px" y="0px"
	 viewBox="-19 21 10 10" style="enable-background:new -19 21 10 10;" xml:space="preserve">
<g id="Close">
	<path d="M-12.9,26l3.2-3.2c0.3-0.3,0.3-0.8,0-1.1c-0.3-0.3-0.8-0.3-1.1,0l-3.2,3.2l-3.2-3.2c-0.3-0.3-0.8-0.3-1.1,0s-0.3,0.8,0,1.1
		l3.2,3.2l-3.2,3.2c-0.3,0.3-0.3,0.8,0,1.1c0.3,0.3,0.8,0.3,1.1,0l3.2-3.2l3.2,3.2c0.3,0.3,0.8,0.3,1.1,0c0.3-0.3,0.3-0.8,0-1.1
		L-12.9,26z"/>
</g>
</svg>
