<?xml version="1.0" encoding="utf-8"?>
<!-- Generator: Adobe Illustrator 19.1.0, SVG Export Plug-In . SVG Version: 6.00 Build 0)  -->
<svg version="1.1" id="Capa_1" xmlns="http://www.w3.org/2000/svg" xmlns:xlink="http://www.w3.org/1999/xlink" x="0px" y="0px"
	 viewBox="0 0 50 50" style="enable-background:new 0 0 50 50;" xml:space="preserve">
<style type="text/css">
	.st0{fill:#D75A4A;}
</style>
<path class="st0" d="M24.9,47.7L8.2,32.6c-3.4-3-5.7-6.9-6.7-11.1c-0.7-2.9-0.5-4.7-0.4-5.1C1.8,8.5,7.4,2.8,14.3,2.8
	c4.3,0,8.1,2.1,10.5,5.7c2.5-3.5,6.5-5.7,10.8-5.7c7,0,12.5,5.7,13.3,13.5c0.1,0.4,0.3,2.2-0.4,5.1c-1,4.2-3.3,8.1-6.7,11.1
	L24.9,47.7z M4,16.8c0,0-0.2,1.4,0.4,4c0.9,3.6,2.8,7,5.8,9.6l14.7,13.3l15-13.4c2.9-2.6,4.9-5.9,5.7-9.6c0.6-2.5,0.4-4,0.4-4l0-0.1
	c-0.6-6.3-4.9-10.8-10.3-10.8c-4.1,0-7.8,2.5-9.4,6.4l-1.4,3.3l-1.4-3.3c-1.7-3.9-5.2-6.4-9.1-6.4c-5.4,0-9.7,4.6-10.3,10.8L4,16.8
	L4,16.8z"/>
</svg>
