<?xml version="1.0" encoding="utf-8"?>
<!-- Generator: Adobe Illustrator 19.1.0, SVG Export Plug-In . SVG Version: 6.00 Build 0)  -->
<svg version="1.1" id="Capa_1" xmlns="http://www.w3.org/2000/svg" xmlns:xlink="http://www.w3.org/1999/xlink" x="0px" y="0px"
	 viewBox="-19 21 10 10" style="enable-background:new -19 21 10 10;" xml:space="preserve">
<g id="Settings">
	<g>
		<path d="M-9.5,25.5c0-0.1-0.2-0.2-0.3-0.2c-0.4,0-0.8-0.2-0.9-0.6c-0.2-0.4-0.1-0.8,0.3-1.1c0.1-0.1,0.1-0.2,0-0.3
			c-0.2-0.3-0.5-0.5-0.7-0.7c-0.1-0.1-0.3-0.1-0.3,0c-0.3,0.3-0.8,0.4-1.1,0.3c-0.4-0.2-0.6-0.6-0.6-1c0-0.1-0.1-0.2-0.2-0.3
			c-0.3,0-0.7,0-1,0c-0.1,0-0.2,0.1-0.2,0.3c0,0.4-0.2,0.8-0.6,1c-0.4,0.2-0.9,0-1.1-0.3c-0.1-0.1-0.2-0.1-0.3,0
			c-0.3,0.2-0.5,0.5-0.7,0.7c-0.1,0.1-0.1,0.3,0,0.3c0.3,0.3,0.4,0.7,0.3,1.1c-0.2,0.4-0.5,0.6-1,0.6c-0.1,0-0.2,0.1-0.3,0.2
			c0,0.3,0,0.7,0,1c0,0.1,0.2,0.2,0.3,0.2c0.4,0,0.8,0.2,0.9,0.6c0.2,0.4,0.1,0.8-0.3,1.1c-0.1,0.1-0.1,0.2,0,0.3
			c0.2,0.3,0.5,0.5,0.7,0.7c0.1,0.1,0.3,0.1,0.3,0c0.3-0.3,0.8-0.4,1.1-0.3c0.4,0.2,0.6,0.6,0.6,1c0,0.1,0.1,0.2,0.2,0.3
			c0.2,0,0.3,0,0.5,0c0.2,0,0.3,0,0.5,0c0.1,0,0.2-0.1,0.2-0.3c0-0.4,0.2-0.8,0.6-1c0.4-0.2,0.9,0,1.1,0.3c0.1,0.1,0.2,0.1,0.3,0
			c0.3-0.2,0.5-0.5,0.7-0.7c0.1-0.1,0.1-0.3,0-0.3c-0.3-0.3-0.4-0.7-0.3-1.1c0.2-0.4,0.5-0.6,0.9-0.6l0.1,0c0.1,0,0.2-0.1,0.3-0.2
			C-9.5,26.2-9.5,25.8-9.5,25.5z M-14,27.5c-0.8,0-1.5-0.7-1.5-1.5c0-0.8,0.7-1.5,1.5-1.5c0.8,0,1.5,0.7,1.5,1.5
			C-12.5,26.8-13.2,27.5-14,27.5z"/>
	</g>
</g>
</svg>
