<?xml version="1.0" encoding="utf-8"?>
<!-- Generator: Adobe Illustrator 19.1.0, SVG Export Plug-In . SVG Version: 6.00 Build 0)  -->
<svg version="1.1" id="Capa_1" xmlns="http://www.w3.org/2000/svg" xmlns:xlink="http://www.w3.org/1999/xlink" x="0px" y="0px"
	 viewBox="0 0 50 50" style="enable-background:new 0 0 50 50;" xml:space="preserve">
<style type="text/css">
	.st0{fill:#D1D1D1;}
</style>
<g>
	<path class="st0" d="M39.3,32c-2.8,0-5.3,1.3-6.9,3.4L19,27.9c0.3-0.9,0.5-1.9,0.5-2.9c0-1-0.2-2-0.5-2.9l13.4-7.5
		c1.6,2.1,4.1,3.4,6.9,3.4c4.8,0,8.7-3.9,8.7-8.7s-3.9-8.7-8.7-8.7s-8.7,3.9-8.7,8.7c0,1,0.2,2,0.5,2.9l-13.4,7.5
		c-1.6-2.1-4.1-3.4-6.9-3.4C5.9,16.3,2,20.2,2,25s3.9,8.7,8.7,8.7c2.8,0,5.3-1.3,6.9-3.4l13.4,7.5c-0.3,0.9-0.5,1.9-0.5,2.9
		c0,4.8,3.9,8.7,8.7,8.7s8.7-3.9,8.7-8.7S44.1,32,39.3,32z M39.3,3.3c3.3,0,6,2.7,6,6s-2.7,6-6,6c-3.3,0-6-2.7-6-6S36,3.3,39.3,3.3z
		 M10.7,31c-3.3,0-6-2.7-6-6s2.7-6,6-6s6,2.7,6,6S14,31,10.7,31z M39.3,46.7c-3.3,0-6-2.7-6-6c0-3.3,2.7-6,6-6c3.3,0,6,2.7,6,6
		C45.3,44,42.6,46.7,39.3,46.7z"/>
</g>
</svg>
